<?xml version="1.0" encoding="utf-8"?>
<!-- Generator: Adobe Illustrator 19.2.1, SVG Export Plug-In . SVG Version: 6.00 Build 0)  -->
<svg version="1.1" id="Layer_1" xmlns="http://www.w3.org/2000/svg" xmlns:xlink="http://www.w3.org/1999/xlink" x="0px" y="0px"
	 viewBox="0 0 150 30" style="enable-background:new 0 0 150 30;" xml:space="preserve">
<style type="text/css">
	.st0{display:none;}
	.st1{display:inline;}
	.st2{fill:#666666;}
	.st3{fill:#FF0000;}
	.st4{fill:#5BB85C;}
	.st5{fill:#E2E0DB;}
	.st6{fill:#FFCC00;}
</style>
<g id="grid" class="st0">
	<g class="st1">
		<path d="M14.7,0.3v14.4H0.3V0.3H14.7 M15,0H0v15h15V0L15,0z"/>
	</g>
	<g class="st1">
		<path d="M29.7,0.3v14.4H15.3V0.3H29.7 M30,0H15v15h15V0L30,0z"/>
	</g>
	<g class="st1">
		<path d="M44.7,0.3v14.4H30.3V0.3H44.7 M45,0H30v15h15V0L45,0z"/>
	</g>
	<g class="st1">
		<path d="M59.7,0.3v14.4H45.3V0.3H59.7 M60,0H45v15h15V0L60,0z"/>
	</g>
	<g class="st1">
		<path d="M74.7,0.3v14.4H60.3V0.3H74.7 M75,0H60v15h15V0L75,0z"/>
	</g>
	<g class="st1">
		<path d="M89.7,0.3v14.4H75.3V0.3H89.7 M90,0H75v15h15V0L90,0z"/>
	</g>
	<g class="st1">
		<path d="M104.7,0.3v14.4H90.3V0.3H104.7 M105,0H90v15h15V0L105,0z"/>
	</g>
	<g class="st1">
		<path d="M119.7,0.3v14.4h-14.4V0.3H119.7 M120,0h-15v15h15V0L120,0z"/>
	</g>
	<g class="st1">
		<path d="M134.7,0.3v14.4h-14.4V0.3H134.7 M135,0h-15v15h15V0L135,0z"/>
	</g>
	<g class="st1">
		<path d="M149.7,0.3v14.4h-14.4V0.3H149.7 M150,0h-15v15h15V0L150,0z"/>
	</g>
	<g class="st1">
		<path d="M14.7,15.3v14.4H0.3V15.3H14.7 M15,15H0v15h15V15L15,15z"/>
	</g>
	<g class="st1">
		<path d="M29.7,15.3v14.4H15.3V15.3H29.7 M30,15H15v15h15V15L30,15z"/>
	</g>
	<g class="st1">
		<path d="M44.7,15.3v14.4H30.3V15.3H44.7 M45,15H30v15h15V15L45,15z"/>
	</g>
	<g class="st1">
		<path d="M59.7,15.3v14.4H45.3V15.3H59.7 M60,15H45v15h15V15L60,15z"/>
	</g>
	<g class="st1">
		<path d="M74.7,15.3v14.4H60.3V15.3H74.7 M75,15H60v15h15V15L75,15z"/>
	</g>
	<g class="st1">
		<path d="M89.7,15.3v14.4H75.3V15.3H89.7 M90,15H75v15h15V15L90,15z"/>
	</g>
	<g class="st1">
		<path d="M104.7,15.3v14.4H90.3V15.3H104.7 M105,15H90v15h15V15L105,15z"/>
	</g>
	<g class="st1">
		<path d="M119.7,15.3v14.4h-14.4V15.3H119.7 M120,15h-15v15h15V15L120,15z"/>
	</g>
	<g class="st1">
		<path d="M134.7,15.3v14.4h-14.4V15.3H134.7 M135,15h-15v15h15V15L135,15z"/>
	</g>
	<g class="st1">
		<path d="M149.7,15.3v14.4h-14.4V15.3H149.7 M150,15h-15v15h15V15L150,15z"/>
	</g>
</g>
<g id="icons">
	<polygon class="st2" points="57,3.8 56.3,3.1 52.5,6.8 48.8,3.1 48.1,3.8 51.8,7.5 48.1,11.3 48.8,12 52.5,8.2 56.3,12 57,11.3 
		53.2,7.5 	"/>
	<polygon class="st2" points="11.3,19.4 10.6,18.7 7.5,21.8 4.4,18.7 3.7,19.4 6.8,22.5 3.7,25.6 4.4,26.3 7.5,23.2 10.6,26.3 
		11.3,25.6 8.2,22.5 	"/>
	<g>
		<polygon class="st3" points="26.3,19.4 25.6,18.7 22.5,21.8 19.4,18.7 18.7,19.4 21.8,22.5 18.7,25.6 19.4,26.3 22.5,23.2 
			25.6,26.3 26.3,25.6 23.2,22.5 		"/>
		<rect x="22" y="18.1" class="st3" width="1" height="2.9"/>
		<rect x="24" y="22" class="st3" width="2.9" height="1"/>
		<rect x="22" y="24" class="st3" width="1" height="2.9"/>
		<rect x="18.1" y="22" class="st3" width="2.9" height="1"/>
	</g>
	<rect x="32" y="22" class="st2" width="10.9" height="1"/>
	<g>
		<rect x="16" y="7" class="st2" width="13" height="1"/>
		<rect x="16" y="3" class="st2" width="13" height="1"/>
		<rect x="16" y="11.1" class="st2" width="13" height="1"/>
	</g>
	<polygon class="st2" points="43,7 38,7 38,2.1 37,2.1 37,7 32,7 32,8 37,8 37,13 38,13 38,8 43,8 	"/>
	<polygon class="st2" points="104,7 98,7 98,1 97,1 97,7 91,7 91,8 97,8 97,14.1 98,14.1 98,8 104,8 	"/>
	<rect x="91" y="22" class="st2" width="13" height="1"/>
	<circle class="st4" cx="52.5" cy="22.5" r="4.4"/>
	<circle class="st4" cx="67.5" cy="7.5" r="4.4"/>
	<path class="st5" d="M82.5,12.4c-2.7,0-4.9-2.2-4.9-4.9s2.2-4.9,4.9-4.9c2.7,0,4.9,2.2,4.9,4.9S85.2,12.4,82.5,12.4z M82.5,3.6
		c-2.2,0-3.9,1.8-3.9,3.9s1.8,3.9,3.9,3.9c2.2,0,3.9-1.8,3.9-3.9S84.7,3.6,82.5,3.6z"/>
	<circle class="st3" cx="67.5" cy="22.5" r="4.4"/>
	<circle class="st6" cx="82.5" cy="22.5" r="4.4"/>
	<g>
		<path class="st2" d="M7.5,1.1C4,1.1,1.1,4,1.1,7.5S4,14,7.5,14s6.4-2.9,6.4-6.4S11.1,1.1,7.5,1.1z M7.5,13c-3,0-5.4-2.4-5.4-5.4
			s2.4-5.4,5.4-5.4s5.4,2.4,5.4,5.4S10.5,13,7.5,13z"/>
		<rect x="7" y="7" class="st2" width="1" height="4"/>
		<rect x="7" y="4" class="st2" width="1" height="1"/>
	</g>
	<polygon class="st5" points="108.5,9.7 112.5,5.4 116.6,9.7 	"/>
	<polygon class="st5" points="131.6,5.4 127.5,9.7 123.5,5.4 	"/>
	<polygon class="st2" points="140.6,15 139.9,14.3 146.6,7.5 139.9,0.8 140.6,0.1 148,7.5 	"/>
	<path class="st2" d="M143.8,22.5"/>
</g>
<polygon class="st2" points="129.9,22.5 129.2,21.9 125.8,18.4 125.2,19.1 128.6,22.5 125.2,25.9 125.8,26.6 129.2,23.1 "/>
<polygon class="st2" points="110.8,23.1 114.2,26.6 114.9,25.9 111.5,22.5 114.9,19.1 114.2,18.4 110.8,21.9 110.2,22.5 "/>
<polygon class="st2" points="138.4,22.5 145.9,15.1 146.6,15.8 139.8,22.5 146.6,29.2 145.9,29.9 "/>
</svg>
